<svg xmlns="http://www.w3.org/2000/svg" viewBox="0 0 32 32">
  <circle cx="16" cy="16" r="15" fill="#003399"/>
  <g fill="#FFCC00" transform="translate(16,16)">
    <polygon points="0,-1.5 0.35,-0.5 1.4,-0.5 0.55,0.1 0.85,1.2 0,0.55 -0.85,1.2 -0.55,0.1 -1.4,-0.5 -0.35,-0.5" transform="rotate(0) translate(0,-9) scale(1.8)"/>
    <polygon points="0,-1.5 0.35,-0.5 1.4,-0.5 0.55,0.1 0.85,1.2 0,0.55 -0.85,1.2 -0.55,0.1 -1.4,-0.5 -0.35,-0.5" transform="rotate(30) translate(0,-9) scale(1.8)"/>
    <polygon points="0,-1.5 0.35,-0.5 1.4,-0.5 0.55,0.1 0.85,1.2 0,0.55 -0.85,1.2 -0.55,0.1 -1.4,-0.5 -0.35,-0.5" transform="rotate(60) translate(0,-9) scale(1.8)"/>
    <polygon points="0,-1.5 0.35,-0.5 1.4,-0.5 0.55,0.1 0.85,1.2 0,0.55 -0.85,1.2 -0.55,0.1 -1.4,-0.5 -0.35,-0.5" transform="rotate(90) translate(0,-9) scale(1.8)"/>
    <polygon points="0,-1.5 0.35,-0.5 1.4,-0.5 0.55,0.1 0.85,1.2 0,0.55 -0.85,1.2 -0.55,0.1 -1.4,-0.5 -0.35,-0.5" transform="rotate(120) translate(0,-9) scale(1.8)"/>
    <polygon points="0,-1.5 0.35,-0.5 1.4,-0.5 0.55,0.1 0.85,1.2 0,0.55 -0.85,1.2 -0.55,0.1 -1.4,-0.5 -0.35,-0.5" transform="rotate(150) translate(0,-9) scale(1.8)"/>
    <polygon points="0,-1.5 0.35,-0.5 1.4,-0.5 0.55,0.1 0.85,1.2 0,0.55 -0.85,1.2 -0.55,0.1 -1.4,-0.5 -0.35,-0.5" transform="rotate(180) translate(0,-9) scale(1.8)"/>
    <polygon points="0,-1.5 0.35,-0.5 1.4,-0.5 0.55,0.1 0.85,1.2 0,0.55 -0.85,1.2 -0.55,0.1 -1.4,-0.5 -0.35,-0.5" transform="rotate(210) translate(0,-9) scale(1.8)"/>
    <polygon points="0,-1.5 0.35,-0.5 1.4,-0.5 0.55,0.1 0.85,1.2 0,0.55 -0.85,1.2 -0.55,0.1 -1.4,-0.5 -0.35,-0.5" transform="rotate(240) translate(0,-9) scale(1.8)"/>
    <polygon points="0,-1.5 0.35,-0.5 1.4,-0.5 0.55,0.1 0.85,1.2 0,0.55 -0.85,1.2 -0.55,0.1 -1.4,-0.5 -0.35,-0.5" transform="rotate(270) translate(0,-9) scale(1.8)"/>
    <polygon points="0,-1.5 0.35,-0.5 1.4,-0.5 0.55,0.1 0.85,1.2 0,0.55 -0.85,1.2 -0.55,0.1 -1.4,-0.5 -0.35,-0.5" transform="rotate(300) translate(0,-9) scale(1.8)"/>
    <polygon points="0,-1.5 0.35,-0.5 1.4,-0.5 0.55,0.1 0.85,1.2 0,0.55 -0.85,1.2 -0.55,0.1 -1.4,-0.5 -0.35,-0.5" transform="rotate(330) translate(0,-9) scale(1.8)"/>
  </g>
</svg>
